<svg width="13" height="13" viewBox="0 0 13 13" fill="none" xmlns="http://www.w3.org/2000/svg">
<path d="M6.35742 0.25C6.63369 0.25 6.89864 0.359747 7.09399 0.555097C7.28934 0.750448 7.39909 1.0154 7.39909 1.29167V5.45833H11.5658C11.842 5.45833 12.107 5.56808 12.3023 5.76343C12.4977 5.95878 12.6074 6.22373 12.6074 6.5C12.6074 6.77627 12.4977 7.04122 12.3023 7.23657C12.107 7.43192 11.842 7.54167 11.5658 7.54167H7.39909V11.7083C7.39909 11.9846 7.28934 12.2496 7.09399 12.4449C6.89864 12.6403 6.63369 12.75 6.35742 12.75C6.08115 12.75 5.8162 12.6403 5.62085 12.4449C5.4255 12.2496 5.31575 11.9846 5.31575 11.7083V7.54167H1.14909C0.872821 7.54167 0.60787 7.43192 0.412519 7.23657C0.217169 7.04122 0.107422 6.77627 0.107422 6.5C0.107422 6.22373 0.217169 5.95878 0.412519 5.76343C0.60787 5.56808 0.872821 5.45833 1.14909 5.45833H5.31575V1.29167C5.31575 1.0154 5.4255 0.750448 5.62085 0.555097C5.8162 0.359747 6.08115 0.25 6.35742 0.25Z" fill="#747474"/>
</svg>
