<svg width="26" height="25" viewBox="0 0 26 25" fill="none" xmlns="http://www.w3.org/2000/svg">
<path d="M0.857422 12.5C0.857422 10.8585 1.18074 9.23303 1.80893 7.71646C2.43711 6.19989 3.35785 4.8219 4.51859 3.66117C5.67932 2.50043 7.05731 1.57969 8.57388 0.951506C10.0904 0.323322 11.7159 0 13.3574 0C14.9989 0 16.6244 0.323322 18.141 0.951506C19.6575 1.57969 21.0355 2.50043 22.1963 3.66117C23.357 4.8219 24.2777 6.19989 24.9059 7.71646C25.5341 9.23303 25.8574 10.8585 25.8574 12.5C25.8574 15.8152 24.5405 18.9946 22.1963 21.3388C19.8521 23.683 16.6726 25 13.3574 25C10.0422 25 6.86279 23.683 4.51859 21.3388C2.17438 18.9946 0.857422 15.8152 0.857422 12.5ZM13.3574 2.08333C10.5947 2.08333 7.94523 3.1808 5.99173 5.1343C4.03822 7.08781 2.94076 9.73733 2.94076 12.5C2.94076 15.2627 4.03822 17.9122 5.99173 19.8657C7.94523 21.8192 10.5947 22.9167 13.3574 22.9167C16.1201 22.9167 18.7696 21.8192 20.7231 19.8657C22.6766 17.9122 23.7741 15.2627 23.7741 12.5C23.7741 9.73733 22.6766 7.08781 20.7231 5.1343C18.7696 3.1808 16.1201 2.08333 13.3574 2.08333Z" fill="#747474"/>
</svg>
