<svg width="21" height="26" viewBox="0 0 21 26" fill="none" xmlns="http://www.w3.org/2000/svg">
<path d="M10.9143 13C9.53146 13 8.40003 11.8686 8.40003 10.4857C8.40003 9.10287 9.53146 7.97145 10.9143 7.97145C12.2972 7.97145 13.4286 9.10287 13.4286 10.4857C13.4286 11.8686 12.2972 13 10.9143 13ZM18.4572 10.7372C18.4572 6.17373 15.1257 2.94287 10.9143 2.94287C6.70289 2.94287 3.37146 6.17373 3.37146 10.7372C3.37146 13.6789 5.82289 17.576 10.9143 22.2274C16.0057 17.576 18.4572 13.6789 18.4572 10.7372ZM10.9143 0.428589C16.1943 0.428589 20.9715 4.47659 20.9715 10.7372C20.9715 14.9109 17.6149 19.8514 10.9143 25.5714C4.21375 19.8514 0.857178 14.9109 0.857178 10.7372C0.857178 4.47659 5.63432 0.428589 10.9143 0.428589Z" fill="#8E8E8E"/>
</svg>
