<svg width="20" height="18" viewBox="0 0 20 18" fill="none" xmlns="http://www.w3.org/2000/svg">
<path d="M-nan -nanL13.2866 15.2016L12.7746 11.1024C12.702 10.5218 12.4198 9.98766 11.9811 9.6005C11.5424 9.21333 10.9773 8.99978 10.3922 9H8.62897C8.04411 9.00017 7.47943 9.21389 7.04104 9.60102C6.60264 9.98816 6.32069 10.5221 6.24817 11.1024L5.73537 15.2016C5.70723 15.4268 5.72732 15.6554 5.79431 15.8723C5.86131 16.0891 5.97367 16.2892 6.12394 16.4593C6.2742 16.6294 6.45894 16.7656 6.66587 16.8588C6.87281 16.952 7.09721 17.0002 7.32417 17H11.6986C11.9255 17 12.1498 16.9518 12.3566 16.8586C12.5635 16.7653 12.7481 16.6291 12.8983 16.459C13.0485 16.289 13.1607 16.0889 13.2277 15.8721C13.2946 15.6553 13.3147 15.4267 13.2866 15.2016L-nan -nanL-nan -nanZ" stroke="white" stroke-width="2" stroke-linecap="round" stroke-linejoin="round"/>
<path d="M9.51145 5.8C10.8369 5.8 11.9115 4.72548 11.9115 3.4C11.9115 2.07452 10.8369 1 9.51145 1C8.18597 1 7.11145 2.07452 7.11145 3.4C7.11145 4.72548 8.18597 5.8 9.51145 5.8Z" stroke="white" stroke-width="2"/>
<path d="M3.11147 8.2C3.99513 8.2 4.71147 7.48366 4.71147 6.6C4.71147 5.71634 3.99513 5 3.11147 5C2.22782 5 1.51147 5.71634 1.51147 6.6C1.51147 7.48366 2.22782 8.2 3.11147 8.2Z" stroke="white" stroke-width="2"/>
<path d="M15.9114 8.2C16.7951 8.2 17.5114 7.48366 17.5114 6.6C17.5114 5.71634 16.7951 5 15.9114 5C15.0277 5 14.3114 5.71634 14.3114 6.6C14.3114 7.48366 15.0277 8.2 15.9114 8.2Z" stroke="white" stroke-width="2"/>
<path d="M3.1114 10.6001H2.8666C2.48785 10.6001 2.12136 10.7344 1.83234 10.9791C1.54332 11.2239 1.3505 11.5633 1.2882 11.9369L1.0218 13.5369C0.983567 13.7661 0.995734 14.0009 1.05745 14.225C1.11917 14.4491 1.22896 14.657 1.37918 14.8343C1.5294 15.0116 1.71645 15.1541 1.92731 15.2518C2.13818 15.3495 2.36779 15.4001 2.6002 15.4001H5.5114M15.9114 10.6001H16.1562C16.5349 10.6001 16.9014 10.7344 17.1905 10.9791C17.4795 11.2239 17.6723 11.5633 17.7346 11.9369L18.001 13.5369C18.0392 13.7661 18.0271 14.0009 17.9653 14.225C17.9036 14.4491 17.7938 14.657 17.6436 14.8343C17.4934 15.0116 17.3063 15.1541 17.0955 15.2518C16.8846 15.3495 16.655 15.4001 16.4226 15.4001H13.5114" stroke="white" stroke-width="2" stroke-linecap="round" stroke-linejoin="round"/>
</svg>
