<svg width="30" height="30" viewBox="0 0 30 30" fill="none" xmlns="http://www.w3.org/2000/svg">
<path d="M30 1.8V7.8C30 8.27739 29.8104 8.73523 29.4728 9.07279C29.1352 9.41036 28.6774 9.6 28.2 9.6C27.7226 9.6 27.2648 9.41036 26.9272 9.07279C26.5896 8.73523 26.4 8.27739 26.4 7.8V3.6H22.2C21.7226 3.6 21.2648 3.41036 20.9272 3.07279C20.5896 2.73523 20.4 2.27739 20.4 1.8C20.4 1.32261 20.5896 0.864773 20.9272 0.527208C21.2648 0.189642 21.7226 0 22.2 0H28.2C28.6774 0 29.1352 0.189642 29.4728 0.527208C29.8104 0.864773 30 1.32261 30 1.8ZM7.8 26.4H3.6V22.2C3.6 21.7226 3.41036 21.2648 3.07279 20.9272C2.73523 20.5896 2.27739 20.4 1.8 20.4C1.32261 20.4 0.864773 20.5896 0.527208 20.9272C0.189642 21.2648 0 21.7226 0 22.2V28.2C0 28.6774 0.189642 29.1352 0.527208 29.4728C0.864773 29.8104 1.32261 30 1.8 30H7.8C8.27739 30 8.73523 29.8104 9.07279 29.4728C9.41036 29.1352 9.6 28.6774 9.6 28.2C9.6 27.7226 9.41036 27.2648 9.07279 26.9272C8.73523 26.5896 8.27739 26.4 7.8 26.4ZM28.2 20.4C27.7226 20.4 27.2648 20.5896 26.9272 20.9272C26.5896 21.2648 26.4 21.7226 26.4 22.2V26.4H22.2C21.7226 26.4 21.2648 26.5896 20.9272 26.9272C20.5896 27.2648 20.4 27.7226 20.4 28.2C20.4 28.6774 20.5896 29.1352 20.9272 29.4728C21.2648 29.8104 21.7226 30 22.2 30H28.2C28.6774 30 29.1352 29.8104 29.4728 29.4728C29.8104 29.1352 30 28.6774 30 28.2V22.2C30 21.7226 29.8104 21.2648 29.4728 20.9272C29.1352 20.5896 28.6774 20.4 28.2 20.4ZM1.8 9.6C2.27739 9.6 2.73523 9.41036 3.07279 9.07279C3.41036 8.73523 3.6 8.27739 3.6 7.8V3.6H7.8C8.27739 3.6 8.73523 3.41036 9.07279 3.07279C9.41036 2.73523 9.6 2.27739 9.6 1.8C9.6 1.32261 9.41036 0.864773 9.07279 0.527208C8.73523 0.189642 8.27739 0 7.8 0H1.8C1.32261 0 0.864773 0.189642 0.527208 0.527208C0.189642 0.864773 0 1.32261 0 1.8V7.8C0 8.27739 0.189642 8.73523 0.527208 9.07279C0.864773 9.41036 1.32261 9.6 1.8 9.6ZM20.4 23.4H9.6C8.80557 23.3961 8.04479 23.0787 7.48304 22.517C6.92128 21.9552 6.60394 21.1944 6.6 20.4V9.6C6.60394 8.80557 6.92128 8.04479 7.48304 7.48304C8.04479 6.92128 8.80557 6.60394 9.6 6.6H20.4C21.1944 6.60394 21.9552 6.92128 22.517 7.48304C23.0787 8.04479 23.3961 8.80557 23.4 9.6V20.4C23.3961 21.1944 23.0787 21.9552 22.517 22.517C21.9552 23.0787 21.1944 23.3961 20.4 23.4V23.4ZM19.8 10.2H10.2V19.8H19.8V10.2Z" fill="white"/>
</svg>
