<svg width="26" height="26" viewBox="0 0 26 26" fill="none" xmlns="http://www.w3.org/2000/svg">
<path d="M9.57141 22H6.14284C4.93042 22 3.76766 21.5184 2.91035 20.6611C2.05304 19.8038 1.57141 18.641 1.57141 17.4286V7.14287C1.57141 5.93046 2.05304 4.7677 2.91035 3.91039C3.76766 3.05308 4.93042 2.57145 6.14284 2.57145H18.7143C19.9267 2.57145 21.0894 3.05308 21.9468 3.91039C22.8041 4.7677 23.2857 5.93046 23.2857 7.14287V10.5714M8.42855 1.42859V3.7143M16.4286 1.42859V3.7143M1.57141 8.28573H23.2857M20.4286 17.0206L18.7143 18.7349" stroke="#FFB700" stroke-width="2" stroke-linecap="round" stroke-linejoin="round"/>
<path d="M18.7142 24.2857C21.8701 24.2857 24.4284 21.7274 24.4284 18.5715C24.4284 15.4156 21.8701 12.8572 18.7142 12.8572C15.5583 12.8572 12.9999 15.4156 12.9999 18.5715C12.9999 21.7274 15.5583 24.2857 18.7142 24.2857Z" stroke="#FFB700" stroke-width="2" stroke-linecap="round" stroke-linejoin="round"/>
</svg>
