<svg width="30" height="30" viewBox="0 0 30 30" fill="none" xmlns="http://www.w3.org/2000/svg">
<path d="M15.0939 8.4375C11.4376 8.4375 8.53137 11.3438 8.53137 15C8.53137 18.6562 11.4376 21.5625 15.0939 21.5625C18.7501 21.5625 21.6564 18.6562 21.6564 15C21.6564 11.3438 18.7501 8.4375 15.0939 8.4375ZM15.0939 19.6875C12.4689 19.6875 10.4064 17.625 10.4064 15C10.4064 12.375 12.4689 10.3125 15.0939 10.3125C17.7189 10.3125 19.7814 12.375 19.7814 15C19.7814 17.625 17.7189 19.6875 15.0939 19.6875Z" fill="#898989"/>
<path d="M28.875 11.9062L26.25 11.0625L25.6875 9.65625L27 7.21875C27.2812 6.65625 27.1875 5.90625 26.7188 5.4375L24.4688 3.1875C24 2.71875 23.25 2.625 22.6875 2.90625L20.25 4.21875L18.8438 3.65625L18 1.03125C17.8125 0.46875 17.25 0 16.5938 0H13.4062C12.75 0 12.1875 0.46875 12.0938 1.125L11.25 3.75C10.6875 3.84375 10.2188 4.03125 9.75 4.3125L7.3125 3C6.75 2.71875 6 2.8125 5.53125 3.28125L3.28125 5.53125C2.8125 6 2.71875 6.75 3 7.3125L4.21875 9.65625C4.03125 10.125 3.84375 10.6875 3.65625 11.1562L1.03125 12C0.46875 12.1875 0 12.75 0 13.4062V16.5938C0 17.25 0.46875 17.8125 1.125 18L3.75 18.8438L4.3125 20.25L3 22.6875C2.71875 23.25 2.8125 24 3.28125 24.4688L5.53125 26.7188C6 27.1875 6.75 27.2812 7.3125 27L9.75 25.6875L11.1562 26.25L12 28.9688C12.1875 29.5313 12.75 30 13.4062 30H16.5938C17.25 30 17.8125 29.5313 18 28.9688L18.8438 26.25L20.25 25.6875L22.6875 27C23.25 27.2812 24 27.1875 24.4688 26.7188L26.7188 24.4688C27.1875 24 27.2812 23.25 27 22.6875L25.6875 20.25L26.25 18.8438L28.9688 18C29.5313 17.8125 30 17.25 30 16.5938V13.4062C30 12.75 29.5312 12.0938 28.875 11.9062ZM28.125 16.3125L24.75 17.3438L24.6562 17.8125L23.8125 19.7812L23.5312 20.25L25.2188 23.3438L23.3438 25.2188L20.25 23.5312L19.7812 23.8125C19.125 24.1875 18.4688 24.4688 17.8125 24.6562L17.3438 24.75L16.3125 28.125H13.6875L12.6562 24.75L12.1875 24.6562L10.2188 23.8125L9.75 23.5312L6.65625 25.2188L4.78125 23.3438L6.46875 20.25L6.1875 19.7812C5.8125 19.125 5.53125 18.4688 5.34375 17.8125L5.25 17.3438L1.875 16.3125V13.6875L5.0625 12.75L5.25 12.2812C5.4375 11.5312 5.71875 10.875 6.09375 10.2188L6.375 9.75L4.78125 6.65625L6.65625 4.78125L9.65625 6.46875L10.125 6.1875C10.7812 5.8125 11.4375 5.53125 12.1875 5.34375L12.6562 5.15625L13.6875 1.875H16.3125L17.3438 5.15625L17.8125 5.34375C18.4688 5.53125 19.125 5.8125 19.7812 6.1875L20.25 6.46875L23.3438 4.78125L25.2188 6.65625L23.5312 9.75L23.8125 10.2188C24.1875 10.875 24.4688 11.5312 24.6562 12.1875L24.75 12.6562L28.125 13.6875V16.3125Z" fill="#898989"/>
</svg>
