<svg width="19" height="20" viewBox="0 0 19 20" fill="none" xmlns="http://www.w3.org/2000/svg">
<path fill-rule="evenodd" clip-rule="evenodd" d="M16.8779 3.74317C16.8779 4.24054 16.6804 4.71755 16.3287 5.06925C15.977 5.42094 15.5 5.61853 15.0026 5.61853C14.5052 5.61853 14.0282 5.42094 13.6765 5.06925C13.3248 4.71755 13.1272 4.24054 13.1272 3.74317C13.1272 3.24579 13.3248 2.76879 13.6765 2.41709C14.0282 2.06539 14.5052 1.86781 15.0026 1.86781C15.5 1.86781 15.977 2.06539 16.3287 2.41709C16.6804 2.76879 16.8779 3.24579 16.8779 3.74317V3.74317ZM18.7533 3.74317C18.7532 4.49315 18.5283 5.2259 18.1076 5.84678C17.6869 6.46766 17.0898 6.94817 16.3932 7.22624C15.6967 7.50431 14.9328 7.56719 14.2002 7.40674C13.4676 7.2463 12.7999 6.8699 12.2833 6.32616L7.38236 9.05043C7.54305 9.66946 7.54305 10.3193 7.38236 10.9383L12.2833 13.6626C12.9129 13.0015 13.762 12.5927 14.6714 12.5129C15.5808 12.4331 16.4882 12.6877 17.2233 13.229C17.9584 13.7703 18.4709 14.5612 18.6646 15.4533C18.8584 16.3454 18.7201 17.2776 18.2757 18.075C17.8313 18.8725 17.1113 19.4805 16.2507 19.7851C15.3901 20.0897 14.448 20.0699 13.6009 19.7295C12.7538 19.3892 12.0599 18.7515 11.6493 17.9361C11.2388 17.1207 11.1397 16.1836 11.3706 15.3004L6.46969 12.5774C5.95308 13.121 5.28535 13.4973 4.55272 13.6577C3.82009 13.8181 3.05621 13.7551 2.35971 13.477C1.66322 13.1988 1.0661 12.7183 0.645468 12.0974C0.224834 11.4765 0 10.7437 0 9.99374C0 9.24376 0.224834 8.51101 0.645468 7.8901C1.0661 7.26919 1.66322 6.78863 2.35971 6.5105C3.05621 6.23236 3.82009 6.1694 4.55272 6.32977C5.28535 6.49013 5.95308 6.86645 6.46969 7.41012L11.3706 4.6871C11.2378 4.17187 11.2161 3.63427 11.307 3.11001C11.3979 2.58575 11.5993 2.08683 11.8978 1.64638C12.1963 1.20593 12.5851 0.834042 13.0384 0.555407C13.4917 0.276771 13.9991 0.0977683 14.5269 0.0302871C15.0547 -0.0371941 15.5908 0.0083906 16.0996 0.164014C16.6084 0.319637 17.0783 0.581737 17.478 0.932905C17.8778 1.28407 18.1982 1.71627 18.4181 2.2008C18.638 2.68533 18.7522 3.21109 18.7533 3.74317V3.74317ZM16.8779 16.2456C16.8779 16.7429 16.6804 17.2199 16.3287 17.5716C15.977 17.9233 15.5 18.1209 15.0026 18.1209C14.5052 18.1209 14.0282 17.9233 13.6765 17.5716C13.3248 17.2199 13.1272 16.7429 13.1272 16.2456C13.1272 15.7482 13.3248 15.2712 13.6765 14.9195C14.0282 14.5678 14.5052 14.3702 15.0026 14.3702C15.5 14.3702 15.977 14.5678 16.3287 14.9195C16.6804 15.2712 16.8779 15.7482 16.8779 16.2456ZM5.62578 9.99436C5.62578 10.4917 5.4282 10.9687 5.0765 11.3204C4.7248 11.6721 4.24779 11.8697 3.75042 11.8697C3.25304 11.8697 2.77604 11.6721 2.42434 11.3204C2.07264 10.9687 1.87506 10.4917 1.87506 9.99436C1.87506 9.49699 2.07264 9.01998 2.42434 8.66829C2.77604 8.31659 3.25304 8.11901 3.75042 8.11901C4.24779 8.11901 4.7248 8.31659 5.0765 8.66829C5.4282 9.01998 5.62578 9.49699 5.62578 9.99436V9.99436Z" fill="white"/>
</svg>
