<svg width="24" height="24" viewBox="0 0 24 24" fill="none" xmlns="http://www.w3.org/2000/svg">
<path fill-rule="evenodd" clip-rule="evenodd" d="M0.428589 11.8572C0.428589 5.55545 5.55545 0.428589 11.8572 0.428589C18.1589 0.428589 23.2857 5.55545 23.2857 11.8572C23.2857 18.1589 18.1589 23.2857 11.8572 23.2857C5.55545 23.2857 0.428589 18.1589 0.428589 11.8572ZM2.7143 11.8572C2.7143 16.8983 6.81602 21 11.8572 21C16.8983 21 21 16.8983 21 11.8572C21 6.81602 16.8983 2.7143 11.8572 2.7143C6.81602 2.7143 2.7143 6.81602 2.7143 11.8572ZM10.7144 6.14287H13.0001V11.384L16.0938 14.4777L14.4778 16.0937L10.7144 12.3303V6.14287Z" fill="#8E8E8E"/>
</svg>
